<svg xmlns="http://www.w3.org/2000/svg" width="34" height="34" viewBox="0 0 34 34">
  <g id="グループ_25" data-name="グループ 25" transform="translate(-1068 -5220)">
    <path id="楕円形_7_-_アウトライン" data-name="楕円形 7 - アウトライン" d="M17,1.417a15.583,15.583,0,0,0-11.019,26.6A15.583,15.583,0,0,0,28.019,5.981,15.481,15.481,0,0,0,17,1.417M17,0A17,17,0,1,1,0,17,17,17,0,0,1,17,0Z" transform="translate(1068 5220)" fill="#121212"/>
    <path id="パス_18" data-name="パス 18" d="M18.682,10.242V8.466H10.216V0H8.466V8.466H0v1.776H8.466v8.466h1.75V10.242Z" transform="translate(1084.817 5223.596) rotate(45)" fill="#121212"/>
  </g>
</svg>
