<svg xmlns="http://www.w3.org/2000/svg" width="230" height="230" viewBox="0 0 230 230">
  <g id="グループ_71" data-name="グループ 71" transform="translate(-660 -2301)">
    <circle id="楕円形_4" data-name="楕円形 4" cx="115" cy="115" r="115" transform="translate(660 2301)" fill="#f7f7f7"/>
    <g id="グループ_70" data-name="グループ 70" transform="translate(1.752 -8.568)">
      <path id="パス_40" data-name="パス 40" d="M-40.1-14.976a20.714,20.714,0,0,0-5.248-2.944l-1.344,1.728a22.738,22.738,0,0,1,5.248,3.168ZM-43.968,2.048C-42.592-.9-40.992-4.8-39.808-8.128l-1.92-1.248A91.254,91.254,0,0,1-46.112.768Zm-1.376-26.784a22.037,22.037,0,0,1,4.96,3.424l1.408-1.888A20.311,20.311,0,0,0-44-26.432Zm13.5,1.152v2.56h-4.48v-2.56Zm-4.48,6.944V-19.3h4.48v2.656Zm6.464,1.856V-25.44H-38.5V2.432h2.176V-14.784ZM-22.5-3.072h-5.248v-3.1h3.936V-8h-3.936v-2.5h4.608v-1.856h-10.88V-10.5h4.32V-8H-33.44v1.824H-29.7v3.1H-34.56v1.856H-22.5Zm-3.04-13.568V-19.3h4.7v2.656Zm4.7-6.944v2.56h-4.7v-2.56Zm2.176-1.856h-8.928v10.656h6.752V-.352c0,.48-.16.64-.608.64-.416.032-1.92.064-3.488,0a9.715,9.715,0,0,1,.672,2.144,13.657,13.657,0,0,0,4.48-.384c.864-.384,1.12-1.088,1.12-2.368Zm9.792,3.1-3.1-.064a14.435,14.435,0,0,1,.224,2.848c0,1.856.064,5.76.352,8.544C-10.528-2.72-7.616.288-4.576.288c2.144,0,4.1-1.856,6.016-7.3L-.576-9.28c-.832,3.2-2.336,6.528-3.968,6.528-2.272,0-3.84-3.552-4.352-8.9-.224-2.656-.256-5.568-.224-7.584A24.364,24.364,0,0,1-8.864-22.336Zm16.672.9-2.5.864c3.072,3.744,4.992,10.3,5.568,16.1l2.56-1.056C12.96-10.944,10.656-17.728,7.808-21.44ZM25.856-24.9,23.328-23.84a107.246,107.246,0,0,0,4.64,9.856c-3.424,2.4-5.536,4.992-5.536,8.288C22.432-.9,26.784.9,32.8.9A62.994,62.994,0,0,0,42.912.1V-2.752a47.614,47.614,0,0,1-10.24,1.088c-5.056,0-7.584-1.664-7.584-4.32,0-2.432,1.792-4.544,4.768-6.464a106.306,106.306,0,0,1,9.728-5.312c.928-.48,1.728-.9,2.464-1.344L40.64-21.376a17.478,17.478,0,0,1-2.272,1.5c-1.76.96-5.216,2.656-8.224,4.48A68.911,68.911,0,0,1,25.856-24.9Zm-70.88,67.264h2.272V37.984A22.994,22.994,0,0,0-34.56,43.84a7.068,7.068,0,0,1,1.44-1.76,20.775,20.775,0,0,1-8.288-5.088h7.744V35.1h-9.088V32.48a67.7,67.7,0,0,0,7.712-1.088l-1.536-1.6a118.175,118.175,0,0,1-16.416,1.6,6.743,6.743,0,0,1,.544,1.664c2.336-.064,4.9-.192,7.424-.384V35.1h-8.928v1.888H-46.5a22.34,22.34,0,0,1-8.48,5.44A8.078,8.078,0,0,1-53.5,44.1a24.14,24.14,0,0,0,8.48-6.08Zm5.28,3.616c.192-.96.352-1.952.512-2.88H-51.424v1.888h3.808c-.608,3.392-2.016,5.888-6.336,7.264a6.89,6.89,0,0,1,1.28,1.76c4.928-1.7,6.592-4.768,7.264-9.024h3.776c-.256,1.28-.544,2.592-.832,3.584l2.048.256a8.52,8.52,0,0,0,.256-1.056h3.136c-.288,2.4-.576,3.456-.96,3.84-.256.224-.544.224-1.088.224-.48,0-1.984,0-3.52-.128a5.281,5.281,0,0,1,.576,1.824,31.836,31.836,0,0,0,3.872.032,2.52,2.52,0,0,0,1.92-.672c.736-.672,1.12-2.272,1.472-5.984a6.434,6.434,0,0,0,.064-.928ZM-55.136,35.232a23.924,23.924,0,0,0-5.152-5.216l-1.824,1.344A23.641,23.641,0,0,1-57.056,36.7Zm-.96,6.528h-6.3V44h4.064v8.192a52.672,52.672,0,0,1-4.416,3.68l1.248,2.272c1.568-1.376,3.04-2.72,4.448-4.1,1.984,2.5,4.864,3.616,9.056,3.776,3.584.16,10.336.1,13.92-.064a8.711,8.711,0,0,1,.768-2.336c-3.84.256-11.2.352-14.72.192-3.744-.128-6.56-1.216-8.064-3.584Zm34.976-8.416v6.048H-27.1V33.344ZM-27.1,47.936V41.568h5.984v6.368Zm8.192,2.208V31.2H-29.344V53.088h2.24V50.144Zm5.056-4.064a37.562,37.562,0,0,0,.192-4.16V40.48h8.928v5.6Zm9.12-13.248V38.3h-8.928V32.832Zm2.3-2.24H-15.968V41.92c0,4.96-.544,10.976-5.92,15.1a9.355,9.355,0,0,1,1.76,1.632,16.316,16.316,0,0,0,5.952-10.4h9.44V55.3c0,.576-.224.768-.832.8-.512,0-2.528.032-4.608-.032a8.186,8.186,0,0,1,.9,2.3,20.224,20.224,0,0,0,5.5-.416c1.024-.416,1.344-1.152,1.344-2.656Zm5.76,27.2c2.3-1.632,3.552-4.32,4.352-6.848l-2.048-.7a11.834,11.834,0,0,1-4.256,6.24ZM17.28,36.576H7.52V38.24h9.76Zm-2.528,8.832h-4.7V42.08h4.7Zm1.792,1.76A14.158,14.158,0,0,1,18.272,48.8a21.224,21.224,0,0,0,3.776-3.456c1.6,2.336,3.488,3.744,5.44,3.744,2.016,0,2.88-1.12,3.264-5.12A5.6,5.6,0,0,1,28.9,42.912c-.16,2.88-.48,4-1.28,4.032-1.312,0-2.784-1.248-4.128-3.424a26.177,26.177,0,0,0,3.648-7.04l-2.208-.512a21.984,21.984,0,0,1-2.592,5.376,30.949,30.949,0,0,1-2.08-6.912h9.76V32.448H26.5l.992-1.184a16.274,16.274,0,0,0-4.544-2.24L21.7,30.432a17.2,17.2,0,0,1,4.064,2.016H19.936c-.128-1.056-.224-2.144-.256-3.232H17.408c.064,1.088.16,2.176.288,3.232H4.192v4.768c0,3.264-.352,7.744-3.04,11.04A6.4,6.4,0,0,1,2.88,49.728c2.912-3.584,3.488-8.8,3.488-12.48V34.432H17.984a32.284,32.284,0,0,0,2.88,8.9,19.32,19.32,0,0,1-4.1,3.68V40.416h-8.7V47.1H16.64Zm-4.48,1.792a21.2,21.2,0,0,1,5.408,3.872l1.632-1.5a20.156,20.156,0,0,0-5.472-3.68Zm1.92,6.944c-1.728,0-1.984-.16-1.984-.96V50.016H9.632v4.96c0,2.432.864,3.072,4.16,3.072H20c2.688,0,3.392-.9,3.712-4.64a6.206,6.206,0,0,1-2.176-.864c-.1,2.976-.32,3.36-1.728,3.36Zm9.056-4.96a21.284,21.284,0,0,1,5.5,6.5l2.112-1.152a22.476,22.476,0,0,0-5.664-6.4ZM46.72,30.688,44.1,30.464a16.393,16.393,0,0,1-.8,4c-.7.032-1.44.032-2.112.032a46.836,46.836,0,0,1-5.408-.352v2.4c1.76.128,3.872.192,5.248.192h1.408a33.757,33.757,0,0,1-7.392,9.792l2.176,1.6A42.275,42.275,0,0,1,40.128,44.8a8.424,8.424,0,0,1,5.5-2.336,2.671,2.671,0,0,1,2.912,1.984c-3.744,1.952-7.552,4.32-7.552,8.1,0,3.9,3.68,4.9,8.256,4.9a75.173,75.173,0,0,0,8.768-.576l.064-2.56a56.982,56.982,0,0,1-8.736.768c-3.3,0-5.792-.384-5.792-2.88,0-2.112,2.08-3.808,5.056-5.376,0,1.7-.032,3.776-.1,4.992h2.464c-.032-1.568-.064-4.288-.1-6.144,2.432-1.152,4.7-2.08,6.5-2.752a27.863,27.863,0,0,1,2.848-1.024l-1.056-2.4c-.9.48-1.664.832-2.624,1.248-1.664.768-3.616,1.536-5.792,2.592a4.131,4.131,0,0,0-4.288-2.88,9.162,9.162,0,0,0-4.448,1.184,25.407,25.407,0,0,0,2.88-4.96,92.561,92.561,0,0,0,10.624-.9l.032-2.368a78.7,78.7,0,0,1-9.76.992A32.669,32.669,0,0,0,46.72,30.688Z" transform="translate(775 2402)" fill="#454545"/>
      <path id="パス_45" data-name="パス 45" d="M0,0H91.678V8H0Z" transform="translate(727.952 2409)" fill="#fffa64"/>
      <path id="パス_46" data-name="パス 46" d="M0,0H122.976V8H0Z" transform="translate(712.248 2466)" fill="#fffa64"/>
    </g>
  </g>
</svg>
