<svg xmlns="http://www.w3.org/2000/svg" width="230" height="230" viewBox="0 0 230 230">
  <g id="グループ_73" data-name="グループ 73" transform="translate(-147 -2343)">
    <circle id="楕円形_12" data-name="楕円形 12" cx="115" cy="115" r="115" transform="translate(147 2343)" fill="#f7f7f7"/>
    <g id="グループ_72" data-name="グループ 72" transform="translate(0.305 -8.216)">
      <path id="パス_39" data-name="パス 39" d="M-49.632-10.3h-13.12v-5.184h11.328V-17.76H-62.752v-5.184a59.809,59.809,0,0,0,9.984-1.888L-54.56-26.72c-4.8,1.5-14.08,2.336-21.632,2.688a10.789,10.789,0,0,1,.608,2.112c3.3-.16,6.912-.384,10.432-.768v4.928H-76.16v2.272h11.008V-10.3H-78.3v2.336h13.152V-.9c0,.672-.288.9-.992.9-.736.032-3.232.064-5.92-.032A11.777,11.777,0,0,1-71.04,2.336c3.36.032,5.408-.032,6.592-.416s1.7-1.088,1.7-2.784v-7.1h13.12Zm10.816-16.352a35.624,35.624,0,0,1-7.9,12.7,11.953,11.953,0,0,1,1.376,2.368,31.733,31.733,0,0,0,3.168-3.808V2.4h2.368V-19.072a49.517,49.517,0,0,0,3.264-6.848Zm21.472,7.488V-21.44H-30.656c.64-1.408,1.248-2.848,1.76-4.32l-2.272-.608a33.9,33.9,0,0,1-7.04,12.256,15.561,15.561,0,0,1,1.856,1.6,35.069,35.069,0,0,0,4.544-6.656H-29.6v21.6h2.4V-5.312h9.568v-2.24H-27.2v-4.832h9.12v-2.208H-27.2v-4.576Zm22.112.1a29.254,29.254,0,0,1-1.632,3.328l.32.1h-7.52l1.024-.224a13.558,13.558,0,0,0-1.6-3.2Zm9.184,13.92V-7.168H1.12V-9.536H11.136V-11.36H1.12V-13.7H12.7v-1.952H5.44c.64-.96,1.344-2.208,1.984-3.424h6.4V-21.12H8.864a44.746,44.746,0,0,0,2.816-4.608l-2.432-.64A36.3,36.3,0,0,1,6.816-21.5L8-21.12H4.128v-5.664H1.888v5.664H-1.92v-5.664H-4.128v5.664H-8.064l1.632-.608a22.057,22.057,0,0,0-2.72-4.7l-2.016.672A24.943,24.943,0,0,1-8.64-21.12h-5.088v2.048H-5.92l-1.12.224a13.436,13.436,0,0,1,1.568,3.2h-6.976V-13.7H-1.216v2.336h-9.632v1.824h9.632v2.368h-12.64v2.016H-3.392A30.841,30.841,0,0,1-14.688-.1,10.191,10.191,0,0,1-13.152,1.92a32.158,32.158,0,0,0,11.936-6.3V2.432H1.12V-4.544a30.209,30.209,0,0,0,12.032,6.56A8.556,8.556,0,0,1,14.752-.1,29.278,29.278,0,0,1,3.328-5.152Zm3.84-3.616,2.368,2.4C20.64-7.04,21.376-8,22.048-8.832c1.632-1.984,4.224-5.5,5.728-7.392,1.12-1.344,1.728-1.568,3.1-.1,1.472,1.664,3.9,4.736,5.984,7.1,2.208,2.5,5.12,5.76,7.52,8.032L46.432-3.52c-2.88-2.56-6.048-5.888-8-8.032C36.384-13.76,33.952-16.928,32-18.88c-2.112-2.144-3.744-1.824-5.632.352-1.888,2.272-4.576,5.92-6.272,7.648A22.351,22.351,0,0,1,17.792-8.768ZM77.056-11.2c0-6.5-4.768-11.776-12.256-11.776-7.808,0-13.984,6.08-13.984,13.024,0,5.28,2.848,8.544,5.7,8.544,2.976,0,5.5-3.36,7.456-9.952a62.949,62.949,0,0,0,1.92-9.216,8.911,8.911,0,0,1,8.544,9.28c0,5.536-4.032,8.576-8.128,9.5a24.172,24.172,0,0,1-2.752.416l1.5,2.368C72.64,0,77.056-4.48,77.056-11.2ZM53.312-10.176c0-4.352,3.776-9.6,9.92-10.368A52.284,52.284,0,0,1,61.44-11.9C59.808-6.5,58.112-4.352,56.608-4.352,55.168-4.352,53.312-6.144,53.312-10.176ZM-56.48,33.536V36.16c2.528.192,5.248.352,8.448.352,2.976,0,6.464-.224,8.64-.384V33.5c-2.3.224-5.568.448-8.64.448A71.515,71.515,0,0,1-56.48,33.536Zm1.28,12.9-2.592-.256a20.3,20.3,0,0,0-.672,4.448c0,4.032,3.776,6.176,10.272,6.176A45.5,45.5,0,0,0-37.28,55.68l-.032-2.752a38.873,38.873,0,0,1-10.944,1.28c-5.12,0-7.616-1.7-7.616-4.128A11.768,11.768,0,0,1-55.2,46.432ZM-15.1,48.8l-2.4-.224a17.948,17.948,0,0,0-.48,3.776c0,3.168,2.752,4.736,7.808,4.736A42.151,42.151,0,0,0-4,56.608l.1-2.592a30.8,30.8,0,0,1-6.24.64c-4.576,0-5.408-1.472-5.408-2.976A11.315,11.315,0,0,1-15.1,48.8Zm-3.68-17.5-3.072-.256a12.556,12.556,0,0,1-.1,2.624c-.1.64-.256,1.664-.48,2.784-1.248.1-2.4.16-3.456.16a28.989,28.989,0,0,1-3.84-.224l.1,2.5c1.152.064,2.3.128,3.712.128.9,0,1.888-.032,2.944-.1-.256,1.152-.544,2.368-.832,3.424-1.184,4.512-3.456,11.008-5.376,14.3l2.816.96a96.837,96.837,0,0,0,4.992-14.656c.384-1.408.7-2.88,1.024-4.288A61.451,61.451,0,0,0-13.7,37.568v-2.5a53.472,53.472,0,0,1-6.144,1.12c.16-.864.352-1.664.48-2.368C-19.232,33.184-18.976,31.968-18.784,31.3Zm3.008,9.728v2.4a52.593,52.593,0,0,1,5.952-.352,40.459,40.459,0,0,1,5.376.384l.064-2.432a51.221,51.221,0,0,0-5.536-.288C-11.968,40.736-14.08,40.864-15.776,41.024Zm7.936-8.768-1.7.736A36.57,36.57,0,0,1-6.944,37.44l1.728-.768A35.685,35.685,0,0,0-7.84,32.256Zm3.52-1.312-1.664.736a34.026,34.026,0,0,1,2.656,4.448L-1.6,35.36A41.161,41.161,0,0,0-4.32,30.944Zm13.7,2.016c0,.352-.064,1.536-.16,3.04-1.664.256-3.552.48-4.608.544-.768.032-1.376.064-2.08.032l.256,2.656c2.016-.288,4.8-.672,6.272-.864-.1,1.024-.16,2.08-.224,3.1-1.6,2.528-5.28,7.52-7.072,9.76l1.6,2.208c1.536-2.176,3.648-5.216,5.216-7.584,0,.512-.032.96-.032,1.28-.064,3.488-.064,5.12-.1,8.192a17.738,17.738,0,0,1-.1,1.888h2.784c-.064-.576-.128-1.376-.16-1.952-.16-2.848-.128-4.8-.128-7.712,0-1.152.032-2.432.1-3.776,2.912-2.72,6.3-4.576,10.016-4.576a5.852,5.852,0,0,1,6.176,5.7c.032,5.5-4.832,8.032-10.24,8.8l1.184,2.4c6.976-1.344,11.68-4.7,11.648-11.136a8.085,8.085,0,0,0-8.384-8.1A16.173,16.173,0,0,0,11.136,40.9c.032-.7.1-1.408.16-2.08.48-.8,1.024-1.664,1.44-2.24l-.96-1.12c-.064.032-.1.032-.16.064.224-2.24.48-4.032.64-4.832l-3.008-.1A15.293,15.293,0,0,1,9.376,32.96Zm33.472-2.208-2.816-.1c-.064.864-.128,1.792-.256,2.752a84.559,84.559,0,0,0-.992,10.336,38.97,38.97,0,0,0,.352,5.088L41.6,48.64a14.915,14.915,0,0,1-.064-3.936c.384-4.192,4.1-10.016,8.1-10.016,3.36,0,5.088,3.648,5.088,8.7,0,8.032-5.44,10.88-12.384,11.9l1.5,2.3c7.936-1.44,13.5-5.344,13.5-14.24,0-6.72-3.04-10.976-7.3-10.976-4.064,0-7.392,4-8.7,7.264A59.41,59.41,0,0,1,42.848,30.752Z" transform="translate(262 2444)" fill="#454545"/>
      <path id="パス_47" data-name="パス 47" d="M0,0H155.361V8H0Z" transform="translate(183.695 2451.408)" fill="#fffa64"/>
      <path id="パス_48" data-name="パス 48" d="M0,0H118.511V8H0Z" transform="translate(202.695 2506.408)" fill="#fffa64"/>
    </g>
  </g>
</svg>
