<svg xmlns="http://www.w3.org/2000/svg" width="230" height="230" viewBox="0 0 230 230">
  <g id="グループ_78" data-name="グループ 78" transform="translate(-696 -3096)">
    <circle id="楕円形_4" data-name="楕円形 4" cx="115" cy="115" r="115" transform="translate(696 3096)" fill="#f7f7f7"/>
    <g id="グループ_77" data-name="グループ 77" transform="translate(0.256 2.752)">
      <path id="パス_42" data-name="パス 42" d="M-21.056-25.5l-.384.1h-7.84V2.432h2.24V-23.232h4.7c-.768,2.176-1.824,5.12-2.848,7.424,2.5,2.464,3.2,4.576,3.2,6.336A2.572,2.572,0,0,1-22.72-7.3a2.88,2.88,0,0,1-1.12.288,11.94,11.94,0,0,1-2.08-.064A5.2,5.2,0,0,1-25.312-4.9a14.471,14.471,0,0,0,2.368-.032,4.242,4.242,0,0,0,1.792-.608c.96-.64,1.344-1.92,1.312-3.68,0-1.984-.576-4.256-3.168-6.88,1.216-2.5,2.528-5.76,3.52-8.448Zm5.6,8.16h9.664v3.968h-9.664Zm9.664-5.92v3.9h-9.664v-3.9ZM-3.936-10.5a36.484,36.484,0,0,1-4.256,3.84,23.3,23.3,0,0,1-1.76-4.608h6.528V-25.376H-17.76V-.992c-1.344.256-2.56.48-3.584.672l.768,2.3c3.1-.7,7.36-1.632,11.36-2.56l-.16-2.048c-2.048.416-4.128.832-6.08,1.216v-9.856H-12c1.536,6.24,4.448,11.2,9.152,13.6A7.655,7.655,0,0,1-1.28.384,13.754,13.754,0,0,1-7.232-4.992,44.753,44.753,0,0,0-2.08-9.184ZM5.056-20.864H26.848v4.672H29.28V-23.1h-12.1v-3.648H14.72V-23.1h-12v6.912H5.056Zm12.128,13.6h9.472V-9.472H17.184v-5.312h8.16v-2.24H6.816v2.24h7.936V-1.376A9.611,9.611,0,0,1,8.864-7.552a40.391,40.391,0,0,0,.768-4.256L7.2-12.032C6.5-6.3,4.768-1.76,1.216.992a12.422,12.422,0,0,1,1.952,1.6A17.531,17.531,0,0,0,7.936-4.544c2.912,5.408,7.68,6.56,14.3,6.56h7.424a7.013,7.013,0,0,1,.9-2.4c-1.536.032-7.04.032-8.192.032a29.213,29.213,0,0,1-5.184-.384Zm-99.84,40.64c.1.384.32,1.632.672,3.36-3.008.48-5.792.9-7.04,1.024-1.024.128-1.856.192-2.656.224l.544,2.88c.96-.224,1.7-.384,2.592-.544,1.216-.224,4-.672,7.04-1.152.384,1.984.832,4.256,1.28,6.432-3.648.576-7.136,1.12-8.736,1.344-.832.128-2.08.256-2.816.288l.576,2.784c.672-.192,1.568-.352,2.816-.576,1.568-.288,4.992-.864,8.608-1.472.608,3.168,1.12,5.76,1.248,6.464.224.96.32,1.92.48,3.008l2.912-.544c-.288-.9-.544-1.984-.768-2.912-.16-.736-.672-3.3-1.312-6.432,3.136-.48,6.112-.96,7.872-1.248,1.184-.192,2.208-.352,2.88-.416l-.512-2.688c-.7.192-1.6.384-2.848.608-1.6.288-4.64.832-7.872,1.344-.416-2.144-.864-4.416-1.28-6.4,3.072-.48,5.984-.96,7.456-1.184.832-.128,1.824-.256,2.3-.32l-.544-2.688a20.07,20.07,0,0,1-2.272.544c-1.344.256-4.288.736-7.392,1.248-.384-1.792-.608-3.1-.672-3.456-.1-.7-.256-1.6-.288-2.208l-2.88.512A14.992,14.992,0,0,1-82.656,33.376Zm31.776,3.04-2.752.672a7.951,7.951,0,0,1,.768,1.92c.192.608.576,1.984,1.056,3.68-1.952.352-3.456.64-3.9.7-.96.16-1.76.288-2.656.352l.64,2.432c.864-.192,3.488-.7,6.5-1.312,1.248,4.576,2.784,10.24,3.2,11.68a17.869,17.869,0,0,1,.48,2.336l2.72-.7c-.192-.576-.512-1.568-.7-2.176-.416-1.408-1.984-7.04-3.264-11.648,4.448-.9,8.96-1.792,9.7-1.92a29.539,29.539,0,0,1-5.5,6.592l2.272,1.12A44.267,44.267,0,0,0-35.52,40.8l-1.6-1.12a6.761,6.761,0,0,1-1.216.384c-1.088.256-6.528,1.312-11.04,2.176-.48-1.7-.864-3.072-1.056-3.776C-50.624,37.664-50.784,36.96-50.88,36.416Zm26.944-3.872L-25.76,34.5a66.459,66.459,0,0,1,7.968,6.688l2.016-2.016A70.071,70.071,0,0,0-23.936,32.544Zm-2.752,21.44,1.7,2.624a35.076,35.076,0,0,0,12.576-4.96A31.972,31.972,0,0,0-1.664,40.256L-3.2,37.536A30.145,30.145,0,0,1-13.888,49.312,33.041,33.041,0,0,1-26.688,53.984ZM23.328,36.8A2.352,2.352,0,1,1,25.7,39.136,2.336,2.336,0,0,1,23.328,36.8Zm-1.536,0a3.888,3.888,0,1,0,3.9-3.9A3.892,3.892,0,0,0,21.792,36.8ZM2.5,47.584l2.4,2.432c.48-.672,1.184-1.664,1.824-2.464,1.472-1.792,4.128-5.28,5.664-7.168,1.088-1.312,1.7-1.44,2.944-.224,1.344,1.312,4.32,4.48,6.176,6.592,2.048,2.336,4.864,5.6,7.136,8.352l2.208-2.336c-2.464-2.624-5.664-6.112-7.808-8.384-1.888-2.016-4.608-4.864-6.56-6.72-2.176-2.048-3.68-1.7-5.408.32-2.016,2.368-4.8,5.92-6.3,7.456C3.9,46.3,3.328,46.88,2.5,47.584Zm33.568-5.44V45.28c.992-.1,2.688-.16,4.448-.16H58.08c1.44,0,2.784.128,3.424.16V42.144c-.7.064-1.856.16-3.456.16H40.512C38.72,42.3,37.024,42.208,36.064,42.144Zm34.4-9.6L68.64,34.5a66.46,66.46,0,0,1,7.968,6.688l2.016-2.016A70.071,70.071,0,0,0,70.464,32.544Zm-2.752,21.44,1.7,2.624a35.076,35.076,0,0,0,12.576-4.96A31.972,31.972,0,0,0,92.736,40.256L91.2,37.536A30.145,30.145,0,0,1,80.512,49.312,33.041,33.041,0,0,1,67.712,53.984Zm-85.632,52.16v-2.112H-31.488a14.094,14.094,0,0,0,.512-3.008h9.5V99.04h-9.44V96.192h9.888V94.5h2.4V88.352H-30.848v-3.1h-2.368v3.1H-45.408V94.5h2.3v-4h22.08v3.68h-9.888V91.52H-33.28v2.656h-9.44v2.016h9.44V99.04h-8.928v1.984h8.864a10.065,10.065,0,0,1-.608,3.008H-45.888v2.112H-35.04c-1.664,2.4-4.928,4.64-11.168,6.368a9.392,9.392,0,0,1,1.44,1.92c7.3-2.176,10.784-5.12,12.448-8.288h.288c2.432,4.576,6.784,7.264,13.024,8.352a9.1,9.1,0,0,1,1.44-2.048c-5.568-.8-9.664-2.88-11.936-6.3Zm9.056-9.12c.064-1.44.1-2.912.128-4.384h7.68V90.432H-6.624V85.28h-2.24v5.152H-14.5V92.64h3.488c-.128,7.872-.512,15.808-3.84,20.224a6.589,6.589,0,0,1,1.792,1.568c2.688-3.616,3.68-9.152,4.064-15.232h3.84c-.192,8.9-.384,12-.928,12.736a.975.975,0,0,1-.992.448c-.448,0-1.632,0-2.944-.128a5.689,5.689,0,0,1,.608,2.112,23.654,23.654,0,0,0,3.392,0,2.309,2.309,0,0,0,1.856-1.024c.8-1.056.992-4.64,1.216-15.232.032-.32.032-1.088.032-1.088Zm23.3-5.152V89.7H3.008a38.7,38.7,0,0,0,1.184-4l-2.3-.48c-.9,3.936-2.528,7.744-4.7,10.144A18.5,18.5,0,0,1-.992,97.024a22.232,22.232,0,0,0,3.1-5.152ZM4.7,112.256c-1.76,0-2.048-.256-2.048-1.472v-8.9l3.008-1.44v8.608H7.712V99.488l3.424-1.632c0,3.808-.064,6.624-.16,7.1-.1.544-.288.608-.672.608a15.74,15.74,0,0,1-1.664-.032,6.151,6.151,0,0,1,.512,1.856,8.6,8.6,0,0,0,2.4-.192,1.738,1.738,0,0,0,1.44-1.728c.128-.9.192-4.928.192-9.472l.1-.384-1.5-.544-.384.288-.16.16-3.52,1.632v-4.1H5.664v5.056L2.656,99.52V95.552H.512v4.992L-2.3,101.856l.9,1.952,1.92-.9v7.84c0,2.816.864,3.52,4.032,3.52h6.5c2.688,0,3.392-1.056,3.68-4.832a6.626,6.626,0,0,1-2.016-.864c-.128,3.072-.384,3.68-1.792,3.68Zm28.448-10.528v-8.48h9.184v8.48Zm-11.616,0v-8.48h9.152v8.48ZM33.152,90.912v-5.7H30.688v5.7H19.2v15.136h2.336v-1.984h9.152v10.368h2.464V104.064h9.184v1.824h2.432V90.912Z" transform="translate(810.52 3158)" fill="#454545"/>
      <path id="パス_53" data-name="パス 53" d="M0,0H60.361V8H0Z" transform="translate(781.104 3165)" fill="#fffa64"/>
      <path id="パス_55" data-name="パス 55" d="M0,0H93.146V8H0Z" transform="translate(763.104 3277)" fill="#fffa64"/>
      <path id="パス_54" data-name="パス 54" d="M0,0H184.512V8H0Z" transform="translate(718.744 3221)" fill="#fffa64"/>
    </g>
  </g>
</svg>
