<svg xmlns="http://www.w3.org/2000/svg" width="230" height="230" viewBox="0 0 230 230">
  <g id="グループ_82" data-name="グループ 82" transform="translate(-935 -1833)">
    <circle id="楕円形_11" data-name="楕円形 11" cx="115" cy="115" r="115" transform="translate(935 1833)" fill="#f7f7f7"/>
    <g id="グループ_81" data-name="グループ 81" transform="translate(0 7.24)">
      <path id="パス_35" data-name="パス 35" d="M0,0H128.428V8H0Z" transform="translate(986 1930.904)" fill="#fffa64"/>
      <path id="パス_38" data-name="パス 38" d="M0,0H125.152V8H0Z" transform="translate(987 1991.904)" fill="#fffa64"/>
      <path id="パス_56" data-name="パス 56" d="M-34.848-12v-2.432h-12.16c.032-.608.032-1.216.032-1.792v-5.664h12.928V-24.32H-61.984v2.432h12.512v5.632a17.372,17.372,0,0,1-.064,1.824H-60.992V-12h11.2C-50.656-7.36-53.5-2.656-62.592.448A6.813,6.813,0,0,1-61.152,2.5c8.544-2.944,12-7.36,13.344-11.968C-45.376-3.392-41.376.64-34.848,2.5A9.181,9.181,0,0,1-33.216.288C-40.1-1.408-44.192-5.7-46.272-12ZM-2.08-21.856A21.431,21.431,0,0,0-5.7-26.24l-1.7.96a25.731,25.731,0,0,1,3.52,4.544ZM-28.064,2.464a15.4,15.4,0,0,0,3.776-6.432L-26.5-4.512A14.629,14.629,0,0,1-30.24,1.536Zm1.088-19.328c.608-.7,1.152-1.472,1.7-2.24a38.494,38.494,0,0,1,4.9,3.04,19.074,19.074,0,0,1-1.6,2.624A35.658,35.658,0,0,0-26.976-16.864Zm8.832-5.088a25.376,25.376,0,0,1-1.408,4.16,38.839,38.839,0,0,0-4.8-2.784c.288-.448.544-.9.8-1.376Zm1.248-2.08-.448.1h-5.184c.384-.832.736-1.664,1.024-2.464l-2.272-.608a25.934,25.934,0,0,1-7.424,11.3c.448.384,1.216,1.056,1.632,1.5a17.627,17.627,0,0,0,1.376-1.312,37.211,37.211,0,0,1,4.928,3.648A20.485,20.485,0,0,1-30.08-6.816a8.185,8.185,0,0,1,1.664,1.824c6.048-3.008,11.008-8.864,12.992-18.4Zm-4,20.32a38.691,38.691,0,0,1,.672,5.856l2.272-.32a38.752,38.752,0,0,0-.768-5.76Zm6.464.032A37.948,37.948,0,0,1-12.48,2.176l2.3-.48A30.94,30.94,0,0,0-12.224-4.1ZM-7.9-3.9a35.859,35.859,0,0,1,4.16,6.4l2.368-.864A39.193,39.193,0,0,0-5.728-4.64ZM-1.952-17.76V-20H-8.544v-6.4h-2.24V-20h-5.184v2.24h5.056c-.416,3.648-2.08,7.616-7.776,10.592A11.678,11.678,0,0,1-17.024-5.5c4.576-2.432,6.72-5.536,7.712-8.7,1.344,4,3.456,7.072,6.656,8.928A9.864,9.864,0,0,1-1.056-7.3C-4.8-9.12-6.976-12.928-8.16-17.76ZM9.376-4.224A28.675,28.675,0,0,1,1.536.32,10.9,10.9,0,0,1,3.36,1.92a34.955,34.955,0,0,0,8.192-5.312Zm20.9-.9a37.305,37.305,0,0,0-7.776-5.5L20.864-9.376C21.952-8.736,23.136-8,24.256-7.2c-3.744.064-7.552.128-11.072.192a83.177,83.177,0,0,0,8.64-6.112L19.712-14.3A61.5,61.5,0,0,1,12.96-9.056c-.768-.544-1.7-1.12-2.656-1.7A61.856,61.856,0,0,0,15.3-14.816h14.72V-16.7H17.12v-2.048h9.6v-1.824h-9.6v-2.048H28.576v-1.824H17.12v-2.368H14.784v2.368H3.776v1.824H14.784v2.048H5.536v1.824h9.248V-16.7H2.08v1.888H12.16a35.418,35.418,0,0,1-3.52,3.1c-.736-.352-1.44-.7-2.08-1.024L5.024-11.392a44.838,44.838,0,0,1,5.984,3.584c-.448.32-.928.576-1.376.864-2.816.032-5.376.064-7.456.064l.192,2.016c3.36-.064,7.712-.128,12.416-.256V2.4h2.3V-5.184c3.136-.064,6.368-.16,9.536-.256a17.568,17.568,0,0,1,1.888,1.728ZM20.256-2.976A39.27,39.27,0,0,1,28.032,1.76L29.888.352a38.056,38.056,0,0,0-7.872-4.576Zm26.656-7.9c-.8-.928-4-4.672-5.184-5.952v-.832H46.08v-2.272H41.728v-6.848H39.36v6.848H34.048v2.272h4.96c-1.184,4.416-3.616,9.376-6.048,12.032a10.527,10.527,0,0,1,1.312,2.24A32.962,32.962,0,0,0,39.36-12.96V2.4h2.368V-13.952c1.312,1.728,2.976,3.968,3.68,5.12ZM62.56-19.9h-3.3V-26.72H56.832V-19.9H47.3v2.272H56C53.632-12.608,49.44-7.264,45.44-4.544a10.728,10.728,0,0,1,1.7,1.92,38.96,38.96,0,0,0,9.7-11.776V-.768c0,.576-.224.736-.8.768-.608,0-2.656.032-4.736-.032A10.554,10.554,0,0,1,52.16,2.4c2.688,0,4.576-.064,5.632-.48C58.848,1.568,59.264.832,59.264-.8V-17.632h3.3Z" transform="translate(1049.592 1984)" fill="#454545"/>
      <g id="グループ_80" data-name="グループ 80" transform="translate(3.09)">
        <path id="パス_58" data-name="パス 58" d="M-48.09,0h26.7V-7.14h-8.34V-44.46h-6.54a27.7,27.7,0,0,1-10.32,3.78v5.46h8.04V-7.14h-9.54ZM.03.84c9.06,0,15-7.92,15-23.22S9.09-45.24.03-45.24s-15.06,7.5-15.06,22.86C-15.03-7.08-9.03.84.03.84Zm0-6.9c-3.84,0-6.72-3.84-6.72-16.32C-6.69-34.8-3.81-38.4.03-38.4s6.66,3.6,6.66,16.02C6.69-9.9,3.87-6.06.03-6.06ZM35.37.84c9.06,0,15-7.92,15-23.22s-5.94-22.86-15-22.86-15.06,7.5-15.06,22.86C20.31-7.08,26.31.84,35.37.84Zm0-6.9c-3.84,0-6.72-3.84-6.72-16.32,0-12.42,2.88-16.02,6.72-16.02s6.66,3.6,6.66,16.02C42.03-9.9,39.21-6.06,35.37-6.06Z" transform="translate(1032 1926)" fill="#454545"/>
        <path id="パス_57" data-name="パス 57" d="M-6.468-6.84c2.544,0,4.344-2.088,4.344-5.664,0-3.552-1.8-5.592-4.344-5.592s-4.32,2.04-4.32,5.592C-10.788-8.928-9.012-6.84-6.468-6.84Zm0-1.992c-1.032,0-1.824-1.056-1.824-3.672s.792-3.6,1.824-3.6,1.848.984,1.848,3.6S-5.436-8.832-6.468-8.832Zm.6,9.168H-3.78L5.868-18.1H3.78Zm12.312,0c2.52,0,4.344-2.112,4.344-5.664,0-3.576-1.824-5.616-4.344-5.616S2.124-8.9,2.124-5.328C2.124-1.776,3.924.336,6.444.336Zm0-2.016C5.412-1.68,4.62-2.712,4.62-5.328s.792-3.624,1.824-3.624S8.292-7.944,8.292-5.328,7.476-1.68,6.444-1.68Z" transform="translate(1100 1924)" fill="#454545"/>
      </g>
    </g>
  </g>
</svg>
