<svg xmlns="http://www.w3.org/2000/svg" width="230" height="230" viewBox="0 0 230 230">
  <g id="グループ_87" data-name="グループ 87" transform="translate(-1292 -2841)">
    <circle id="楕円形_4" data-name="楕円形 4" cx="115" cy="115" r="115" transform="translate(1292 2841)" fill="#f7f7f7"/>
    <g id="グループ_86" data-name="グループ 86" transform="translate(0 6)">
      <path id="パス_51" data-name="パス 51" d="M0,0H142.384V8H0Z" transform="translate(1336 2941.688)" fill="#fffa64"/>
      <path id="パス_52" data-name="パス 52" d="M0,0H62.643V8H0Z" transform="translate(1376 3007.688)" fill="#fffa64"/>
      <path id="パス_65" data-name="パス 65" d="M-16.96-12.48h6.4v3.264h-6.4Zm0-4.96h6.4v2.912h-6.4Zm-8.064-5.728h19.1v3.648h-19.1ZM-5.184-6.976a39.1,39.1,0,0,1-4.8,3.232,13.494,13.494,0,0,1-2.56-3.424H-1.7V-9.216H-8.352V-12.48h5.376v-2.048H-8.352V-17.44h4.768v-7.808h-23.84v9.312c0,5.12-.256,12.16-3.456,17.184A9.582,9.582,0,0,1-28.8,2.464c3.3-5.184,3.776-12.96,3.776-18.4v-1.5H-19.2v2.912h-4.768v2.048H-19.2v3.264h-5.728v2.048H-20.9V-.736c-1.376.224-2.624.416-3.68.544l.384,2.208C-20.864,1.44-16.224.672-11.84-.064l-.1-2.08c-2.3.384-4.608.736-6.752,1.088V-7.168h3.936c2.144,4.9,6.208,8.224,11.968,9.664A7.51,7.51,0,0,1-1.376.512,17.588,17.588,0,0,1-8.512-2.5a39.242,39.242,0,0,0,5.12-3.232ZM12.288-23.584v2.592H5.28v-2.592ZM5.28-16.544V-19.3h7.008v2.752Zm9.248,1.824V-25.408H2.944V2.464H5.28V-14.72Zm-.9,7.424v-3.456h4.48V-7.3ZM24.576-5.28V-7.3H20.224v-3.456h3.648V-12.7H8.1v1.952h3.456V-7.3H7.488V-5.28h4A8.054,8.054,0,0,1,7.712.864,8.332,8.332,0,0,1,9.28,2.272,10.263,10.263,0,0,0,13.568-5.28h4.544V1.856h2.112V-5.28Zm-4.96-11.232V-19.3H26.88v2.784Zm7.264-7.072v2.592H19.616v-2.592Zm2.336-1.824H17.344v10.72H26.88V-.672c0,.512-.16.7-.672.7C25.728.064,24,.064,22.24,0a7.862,7.862,0,0,1,.768,2.368,14.861,14.861,0,0,0,4.96-.416C28.9,1.536,29.216.768,29.216-.64Z" transform="translate(1407.88 2999)" fill="#454545"/>
      <g id="グループ_85" data-name="グループ 85" transform="translate(9.688)">
        <path id="パス_63" data-name="パス 63" d="M-1.394.952c9.588,0,17.68-5.372,17.68-14.62,0-6.6-4.352-10.812-10-12.376v-.34c5.3-2.108,8.364-6.052,8.364-11.492,0-8.568-6.6-13.4-16.32-13.4-5.916,0-10.744,2.38-15.1,6.188l5.1,6.12c2.992-2.788,5.916-4.42,9.52-4.42,4.284,0,6.732,2.312,6.732,6.256,0,4.488-2.992,7.684-12.24,7.684v7.14C3.3-22.3,6.222-19.176,6.222-14.28c0,4.556-3.468,7.072-8.568,7.072-4.556,0-8.228-2.244-11.22-5.168l-4.692,6.324C-14.722-2.04-9.35.952-1.394.952Z" transform="translate(1382 2935.272)" fill="#454545"/>
        <path id="パス_64" data-name="パス 64" d="M-13.408-22.56a27.139,27.139,0,0,1-2.432,3.68h-8.8a33.369,33.369,0,0,0,3.168-3.68Zm6.976,11.648H-14.56V-16.7h8.128ZM-24.512-16.7h7.584v5.792h-7.584ZM-20.32-.128c-3.52,0-4.192-.48-4.192-2.464V-8.768h18.08v1.44h2.4V-18.88h-9.024a33.845,33.845,0,0,0,3.008-4.864l-1.6-1.024-.448.16H-20c.384-.608.768-1.184,1.12-1.76L-21.5-26.88a29.816,29.816,0,0,1-9.248,10.112A6.587,6.587,0,0,1-29.024-15.1c.736-.544,1.472-1.088,2.144-1.7V-2.624c0,3.808,1.568,4.7,6.72,4.7H-7.744c4.7,0,5.7-1.376,6.24-6.048a7.867,7.867,0,0,1-2.368-.9C-4.256-.992-4.736-.128-7.808-.128ZM2.528-21.056l.288,2.784c3.456-.736,11.616-1.5,15.04-1.888A13,13,0,0,0,11.872-9.344c0,7.136,6.752,10.3,12.672,10.528l.928-2.656c-5.216-.192-11.04-2.176-11.04-8.416A11.263,11.263,0,0,1,21.76-20.032a26.8,26.8,0,0,1,6.272-.512V-23.1c-2.144.1-5.152.288-8.64.576-5.888.48-11.936,1.088-14.016,1.312C4.768-21.152,3.744-21.088,2.528-21.056Zm20.9,4.448-1.632.7a29.707,29.707,0,0,1,2.624,4.512l1.632-.768A37.981,37.981,0,0,0,23.424-16.608Zm3.488-1.344-1.568.736a29.66,29.66,0,0,1,2.688,4.48l1.664-.8A42.263,42.263,0,0,0,26.912-17.952Z" transform="translate(1439 2933.88)" fill="#454545"/>
        <path id="パス_62" data-name="パス 62" d="M-1.44-26.816C-3.9-22.688-9.216-17.632-14.688-14.624a9.756,9.756,0,0,1,1.472,1.888C-7.84-15.872-2.688-20.608-.128-24.48c2.88,4.032,8.48,8.736,13.376,11.584a10.615,10.615,0,0,1,1.568-2.112A40.649,40.649,0,0,1,.928-26.816ZM1.12-5.824h9.7V-7.936H1.12v-4.992H9.6v-2.144H-9.408v2.144h8.1v4.992h-9.536v2.112h9.536V-.608H-13.44V1.568H13.6V-.608H1.12Z" transform="translate(1341 2934.816)" fill="#454545"/>
      </g>
    </g>
  </g>
</svg>
