<svg xmlns="http://www.w3.org/2000/svg" width="230" height="230" viewBox="0 0 230 230">
  <g id="グループ_88" data-name="グループ 88" transform="translate(-343 -2645)">
    <circle id="楕円形_4" data-name="楕円形 4" cx="115" cy="115" r="115" transform="translate(343 2645)" fill="#f7f7f7"/>
    <g id="グループ_84" data-name="グループ 84" transform="translate(0 0.748)">
      <path id="パス_50" data-name="パス 50" d="M0,0H94.564V8H0Z" transform="translate(411 2815.992)" fill="#fffa64"/>
      <g id="グループ_83" data-name="グループ 83" transform="translate(5.739)">
        <path id="パス_59" data-name="パス 59" d="M-57.739,0h25.81V-6.9h-8.062V-42.978h-6.322a26.776,26.776,0,0,1-9.976,3.654v5.278h7.772V-6.9h-9.222Zm31.9,0H2.929V-7.192h-9.28c-2.03,0-4.872.232-7.018.464C-5.539-14.384.9-22.736.9-30.508c0-8-5.394-13.224-13.514-13.224-5.858,0-9.686,2.262-13.63,6.5l4.64,4.64C-19.4-34.974-16.849-37-13.717-37c4.118,0,6.438,2.61,6.438,6.96,0,6.612-6.9,14.674-18.56,25.114ZM6.641,10.556h5.684l14.384-57.3H21.083ZM33.089,0H58.9V-6.9H50.837V-42.978H44.515a26.776,26.776,0,0,1-9.976,3.654v5.278h7.772V-6.9H33.089Z" transform="translate(428 2742)" fill="#454545"/>
        <path id="パス_60" data-name="パス 60" d="M-20.088-9.12A15.815,15.815,0,0,0-15.36,2.4l2.28-1.008a14.91,14.91,0,0,1-4.3-10.512,14.91,14.91,0,0,1,4.3-10.512l-2.28-1.008A15.815,15.815,0,0,0-20.088-9.12Zm30.624-2.808V-14.76h-9v-5.568H-1.512v5.568h-8.952v2.832h7.7a22.915,22.915,0,0,1-8.808,9.312A14.745,14.745,0,0,1-9.432-.168a25.356,25.356,0,0,0,7.92-8.448v10.7H1.536V-8.736a26.622,26.622,0,0,0,7.9,8.472,11.206,11.206,0,0,1,2.136-2.5,23.816,23.816,0,0,1-8.88-9.168ZM20.088-9.12A15.815,15.815,0,0,0,15.36-20.64l-2.28,1.008a14.91,14.91,0,0,1,4.3,10.512,14.91,14.91,0,0,1-4.3,10.512L15.36,2.4A15.815,15.815,0,0,0,20.088-9.12Z" transform="translate(515 2740)" fill="#454545"/>
      </g>
      <path id="パス_61" data-name="パス 61" d="M-31.9-23.424h-5.824v-3.232h-2.3v3.232H-45.92v1.984H-31.9Zm-3.68,7.1a47.248,47.248,0,0,0,1.856-4.544l-2.176-.512a26.509,26.509,0,0,1-1.6,4.64Zm-5.184-.448a17.7,17.7,0,0,0-1.376-4.544l-1.856.48a18.424,18.424,0,0,1,1.248,4.608Zm8.1,12.832c-.736-.672-3.84-3.2-5.056-4.1V-8.8h5.952v-2.016h-5.952v-3.36h6.208v-2.016H-46.368v2.016h6.336v3.36h-6.24V-8.8h5.728a22.436,22.436,0,0,1-6.432,7.2,10.254,10.254,0,0,1,1.6,1.728,25.711,25.711,0,0,0,5.344-6.144V2.368h2.3V-5.76A49.437,49.437,0,0,1-34.08-2.176Zm15.264-12.128H-28.1v-5.7a52.886,52.886,0,0,0,10.272-2.88l-1.92-1.76a43.265,43.265,0,0,1-8.9,2.752l-1.728-.544v11.136c0,4.48-.448,10.016-4.512,13.984a6.007,6.007,0,0,1,1.7,1.664C-28.7-1.856-28.1-8.256-28.1-13.024v-.8h4.768V2.24h2.336V-13.824h3.584Zm20,7.584H-2.976v-4.768H2.592Zm6.144-4.768v-1.216a20.358,20.358,0,0,0,4.576,2.784,9.81,9.81,0,0,1,1.632-1.984A20.794,20.794,0,0,1,8.96-17.376,51.367,51.367,0,0,0,13.984-21.5l-1.792-1.28a39.363,39.363,0,0,1-4.576,4.128,25.645,25.645,0,0,1-2.08-2.464,42.424,42.424,0,0,0,4.7-4.032l-1.792-1.28a41.054,41.054,0,0,1-3.936,3.808A23.72,23.72,0,0,1,2.5-26.656l-2.048.608A27.577,27.577,0,0,0,7.584-15.456H-7.456A22.328,22.328,0,0,0-.8-24.736L-2.368-25.5l-.416.1H-11.9V-23.3h7.936a22.416,22.416,0,0,1-2.976,4.224,44.5,44.5,0,0,0-3.872-3.136l-1.472,1.248a33.921,33.921,0,0,1,3.84,3.36,22.132,22.132,0,0,1-6.5,4.16,12.873,12.873,0,0,1,1.472,1.792A26.22,26.22,0,0,0-8.7-14.464v1.216h3.36V-8.48H-12.7v2.208h7.1C-6.176-3.616-8-1.088-13.344.7a9.287,9.287,0,0,1,1.5,1.888C-5.568.416-3.68-2.848-3.168-6.272h5.76v5.12c0,2.624.7,3.328,3.392,3.328h4.192c2.336,0,3.008-1.12,3.232-5.184A6.556,6.556,0,0,1,11.264-4C11.136-.576,10.976.064,9.984.064H6.336c-1.088,0-1.28-.192-1.28-1.184V-6.272H12.64V-8.48H5.056v-4.768ZM30.688-18.24H21.152v2.112H43.04V-18.24H33.12v-3.168H45.888v-2.208H33.12v-3.136H30.688v3.136H18.176v2.208H30.688ZM45.024-7.456v-6.112H19.008v6.112h2.3v-3.936H42.624v3.936ZM26.56-9.76C26.112-4.224,24.832-1.12,17.5.448a5.863,5.863,0,0,1,1.344,2.016C26.784.512,28.448-3.264,28.992-9.76ZM38.24-.32c-1.248,0-1.472-.16-1.472-1.024V-9.792H34.4v8.48c0,2.464.736,3.168,3.616,3.168h4.672c2.5,0,3.136-1.088,3.424-5.376a8.265,8.265,0,0,1-2.176-.928C43.84-.864,43.648-.32,42.464-.32Z" transform="translate(457.976 2809)" fill="#454545"/>
      <path id="パス_49" data-name="パス 49" d="M0,0H166.847V8H0Z" transform="translate(375 2756)" fill="#fffa64"/>
    </g>
  </g>
</svg>
