<svg xmlns="http://www.w3.org/2000/svg" width="25" height="32.605" viewBox="0 0 25 32.605">
  <g id="icon-tel" transform="translate(-59.712 0.001)">
    <path id="パス_30" data-name="パス 30" d="M61.947,1.381c-2.24,1.453-2.68,5.995-1.835,9.7a33.435,33.435,0,0,0,4.421,10.391,34.723,34.723,0,0,0,7.684,8.274c3.035,2.282,7.361,3.732,9.6,2.279a11.346,11.346,0,0,0,2.893-3.1l-1.2-1.856-3.31-5.1c-.246-.379-1.788-.033-2.572.411a7.46,7.46,0,0,0-2.03,2.206c-.725.419-1.332,0-2.6-.582-1.559-.717-3.311-2.946-4.706-4.964-1.274-2.1-2.594-4.606-2.613-6.321-.016-1.4-.149-2.12.529-2.611a7.461,7.461,0,0,0,2.842-.954c.725-.534,1.67-1.8,1.424-2.181l-3.31-5.1L65.959,0A11.347,11.347,0,0,0,61.947,1.381Z" transform="translate(0 0)" fill="#707070"/>
  </g>
</svg>
