<svg xmlns="http://www.w3.org/2000/svg" width="40" height="29.981" viewBox="0 0 40 29.981">
  <g id="icon-mail" transform="translate(0 -64.122)">
    <path id="パス_42" data-name="パス 42" d="M38.438,64.122H1.563A1.569,1.569,0,0,0,0,65.691V92.534A1.568,1.568,0,0,0,1.563,94.1H38.438A1.568,1.568,0,0,0,40,92.534V65.691a1.537,1.537,0,0,0-.456-1.1A1.563,1.563,0,0,0,38.438,64.122Zm-.794,4.2v23.42H2.35V68.316L17.994,82.253H18a3.013,3.013,0,0,0,1.994.763,2.965,2.965,0,0,0,.737-.106h.075l.188-.069a3.012,3.012,0,0,0,1-.587c2.653-2.361,9.058-8.066,13.365-11.9Zm-1.485-1.839L20.431,80.5a.7.7,0,0,1-.219.125.645.645,0,0,1-.219.038.634.634,0,0,1-.438-.169L3.825,66.478H22.363Z" transform="translate(0)" fill="#707070"/>
  </g>
</svg>
