<svg id="since" xmlns="http://www.w3.org/2000/svg" width="168.115" height="23.333" viewBox="0 0 168.115 23.333">
  <path id="パス_133" data-name="パス 133" d="M168.115,17c0,3.5-3.86,6.336-8.622,6.336H8.622C3.86,23.333,0,20.5,0,17V6.336C0,2.837,3.86,0,8.622,0H159.493c4.762,0,8.622,2.837,8.622,6.336V17Z" fill="#e8bc27"/>
  <g id="グループ_25" data-name="グループ 25">
    <path id="パス_134" data-name="パス 134" d="M40.308,14.255l1.43-.125a3.156,3.156,0,0,0,.473,1.41,2.586,2.586,0,0,0,1.152.891,4.351,4.351,0,0,0,1.758.34,4.206,4.206,0,0,0,1.531-.258,2.13,2.13,0,0,0,.988-.707,1.645,1.645,0,0,0,.324-.98,1.484,1.484,0,0,0-.313-.941,2.3,2.3,0,0,0-1.031-.676,19.68,19.68,0,0,0-2.039-.559,10.562,10.562,0,0,1-2.211-.715,3.121,3.121,0,0,1-1.223-1.066,2.611,2.611,0,0,1-.4-1.426,2.91,2.91,0,0,1,.492-1.621,3.039,3.039,0,0,1,1.438-1.145,5.425,5.425,0,0,1,2.1-.391,5.747,5.747,0,0,1,2.246.41,3.24,3.24,0,0,1,1.5,1.207,3.476,3.476,0,0,1,.563,1.805l-1.453.109a2.345,2.345,0,0,0-.793-1.641,3.079,3.079,0,0,0-2-.555,3.2,3.2,0,0,0-2,.5,1.511,1.511,0,0,0-.629,1.215,1.305,1.305,0,0,0,.445,1.016,6.043,6.043,0,0,0,2.285.816,14.913,14.913,0,0,1,2.535.73,3.459,3.459,0,0,1,1.477,1.168,2.85,2.85,0,0,1,.477,1.629,3.124,3.124,0,0,1-.523,1.723,3.456,3.456,0,0,1-1.5,1.258,5.247,5.247,0,0,1-2.207.449,6.607,6.607,0,0,1-2.6-.453,3.665,3.665,0,0,1-1.648-1.363A3.835,3.835,0,0,1,40.308,14.255Z" fill="#fff"/>
    <path id="パス_135" data-name="パス 135" d="M51.753,17.935V6.481h1.516V17.934H51.753Z" fill="#fff"/>
    <path id="パス_136" data-name="パス 136" d="M55.925,17.935V6.481H57.48L63.5,15.473V6.481h1.453V17.934H63.394l-6.016-9v9H55.925Z" fill="#fff"/>
    <path id="パス_137" data-name="パス 137" d="M75.667,13.919l1.516.383a5.11,5.11,0,0,1-1.715,2.848,4.734,4.734,0,0,1-3.027.98,5.448,5.448,0,0,1-3.012-.754,4.717,4.717,0,0,1-1.766-2.184,7.789,7.789,0,0,1-.605-3.07A6.741,6.741,0,0,1,67.742,9a4.674,4.674,0,0,1,1.945-2.023,5.693,5.693,0,0,1,2.777-.691,4.693,4.693,0,0,1,2.891.875,4.538,4.538,0,0,1,1.633,2.461L75.5,9.975a3.534,3.534,0,0,0-1.156-1.82,3.076,3.076,0,0,0-1.906-.57,3.7,3.7,0,0,0-2.207.633,3.339,3.339,0,0,0-1.246,1.7,6.852,6.852,0,0,0-.359,2.2,6.992,6.992,0,0,0,.426,2.551A3.174,3.174,0,0,0,70.372,16.3a3.713,3.713,0,0,0,1.945.539,3.268,3.268,0,0,0,2.156-.734A3.777,3.777,0,0,0,75.667,13.919Z" fill="#fff"/>
    <path id="パス_138" data-name="パス 138" d="M79.081,17.935V6.481h8.281V7.833H80.6v3.508h6.336v1.344H80.6v3.9h7.031v1.352Z" fill="#fff"/>
    <path id="パス_139" data-name="パス 139" d="M98.894,17.935H97.488V8.974a7.36,7.36,0,0,1-1.332.969,9.715,9.715,0,0,1-1.48.727V9.31a8.551,8.551,0,0,0,2.063-1.344,5.3,5.3,0,0,0,1.25-1.531h.906v11.5Z" fill="#fff"/>
    <path id="パス_140" data-name="パス 140" d="M102.706,15.286l1.352-.125a2.348,2.348,0,0,0,.656,1.383,1.809,1.809,0,0,0,1.242.43,2.151,2.151,0,0,0,1.137-.3,2.447,2.447,0,0,0,.8-.793,4.663,4.663,0,0,0,.523-1.34,7.1,7.1,0,0,0,.211-1.719c0-.063,0-.156-.008-.281a3.229,3.229,0,0,1-1.152,1.09,3.15,3.15,0,0,1-1.582.418,3.2,3.2,0,0,1-2.406-1.031A3.775,3.775,0,0,1,102.5,10.3,3.865,3.865,0,0,1,103.523,7.5,3.43,3.43,0,0,1,106.1,6.434a3.656,3.656,0,0,1,2.043.6,3.753,3.753,0,0,1,1.406,1.715,8.452,8.452,0,0,1,.48,3.223,10.423,10.423,0,0,1-.477,3.5,4.093,4.093,0,0,1-1.418,1.98,3.672,3.672,0,0,1-2.207.68,3.024,3.024,0,0,1-3.218-2.844Zm5.758-5.055a2.748,2.748,0,0,0-.645-1.922,2.017,2.017,0,0,0-1.551-.711,2.137,2.137,0,0,0-1.633.766,2.835,2.835,0,0,0-.695,1.984,2.453,2.453,0,0,0,.66,1.777,2.178,2.178,0,0,0,1.629.684,2.085,2.085,0,0,0,1.605-.684A2.689,2.689,0,0,0,108.464,10.231Z" fill="#fff"/>
    <path id="パス_141" data-name="パス 141" d="M111.487,7.981V6.63H118.9V7.724a15.58,15.58,0,0,0-2.168,3.094,18.773,18.773,0,0,0-1.66,3.969,14.747,14.747,0,0,0-.539,3.148h-1.445a14.023,14.023,0,0,1,.531-3.266,17.1,17.1,0,0,1,1.457-3.691,15.76,15.76,0,0,1,2.02-3h-5.61Z" fill="#fff"/>
    <path id="パス_142" data-name="パス 142" d="M122.456,11.724a2.669,2.669,0,0,1-1.3-.914,2.4,2.4,0,0,1-.422-1.422,2.782,2.782,0,0,1,.9-2.1,3.781,3.781,0,0,1,4.805.019,2.818,2.818,0,0,1,.914,2.121,2.346,2.346,0,0,1-.418,1.387,2.643,2.643,0,0,1-1.27.91,2.921,2.921,0,0,1,2.156,2.937,3.3,3.3,0,0,1-1.039,2.469,4.231,4.231,0,0,1-5.468,0,3.343,3.343,0,0,1-1.039-2.5,3.02,3.02,0,0,1,.566-1.871A2.832,2.832,0,0,1,122.456,11.724Zm-.734,2.906a2.548,2.548,0,0,0,.285,1.164,2.019,2.019,0,0,0,.848.871,2.485,2.485,0,0,0,1.211.309,2.273,2.273,0,0,0,1.664-.648,2.22,2.22,0,0,0,.656-1.648A2.256,2.256,0,0,0,125.71,13a2.315,2.315,0,0,0-1.691-.664,2.236,2.236,0,0,0-2.3,2.3Zm.453-5.289a1.788,1.788,0,0,0,.523,1.328,1.852,1.852,0,0,0,1.359.516,1.824,1.824,0,0,0,1.332-.512,1.693,1.693,0,0,0,.52-1.254,1.758,1.758,0,0,0-.535-1.3,1.819,1.819,0,0,0-1.332-.527,1.842,1.842,0,0,0-1.336.516A1.653,1.653,0,0,0,122.175,9.341Z" fill="#fff"/>
  </g>
</svg>
